<svg xmlns="http://www.w3.org/2000/svg" width="640" height="384" viewBox="0 0 640 384">
  <path id="logo" d="M320,144c-53.02,0-96,50.14-96,112s42.98,112,96,112c53,0,96-50.13,96-112S373.02,144,320,144Zm40,168a8,8,0,0,1-8,8H288a8,8,0,0,1-8-8V296a8,8,0,0,1,8-8h16V232.56l-.47.31a7.992,7.992,0,0,1-11.09-2.22l-8.88-13.31a7.992,7.992,0,0,1,2.22-11.09l15.33-10.22A23.99,23.99,0,0,1,314.42,192H328a8,8,0,0,1,8,8v88h16a8,8,0,0,1,8,8ZM608,64H32A32,32,0,0,0,0,96V416a32,32,0,0,0,32,32H608a32,32,0,0,0,32-32V96A32,32,0,0,0,608,64ZM592,336a64,64,0,0,0-64,64H112a64,64,0,0,0-64-64V176a64,64,0,0,0,64-64H528a64,64,0,0,0,64,64Z" transform="translate(0 -64)" fill="#f6b247"/>
</svg>
